<?xml version="1.0" encoding="UTF-8"?><svg id="Vrstva_1" xmlns="http://www.w3.org/2000/svg" xmlns:xlink="http://www.w3.org/1999/xlink" viewBox="0 0 256 256"><defs><style>.cls-1{fill:#040202;}.cls-1,.cls-2,.cls-3,.cls-4,.cls-5{stroke-width:0px;}.cls-6{clip-path:url(#clippath);}.cls-2{fill:none;}.cls-7{clip-path:url(#clippath-1);}.cls-3{fill:#ea6426;}.cls-4{fill:#eb6422;}.cls-5{fill:#fff;}</style><clipPath id="clippath"><rect class="cls-2" x="8.23" y="3.57" width="99.6" height="84.94" transform="translate(-15.82 40.27) rotate(-33.96)"/></clipPath><clipPath id="clippath-1"><rect class="cls-2" x="8.23" y="3.57" width="99.6" height="84.94" transform="translate(-15.82 40.27) rotate(-33.96)"/></clipPath></defs><rect class="cls-2" width="256" height="256"/><g id="Kresba_77"><g class="cls-6"><g class="cls-7"><path class="cls-4" d="M80.66,63.13c-3.88,2.01-7.86,7.42-7.94,9.97-.07,2.55,3.22,6.04,5.77,6.12,2.55.07,4.24.12,9.85-2.69.95-.47,1.95-1.05,2.97-1.7-.41-5.71-4.98-10.12-8.36-12.91-.82.44-1.59.85-2.29,1.21"/><path class="cls-4" d="M85.98,60.21c3.98,2.95,6.86,9.13,8.25,12.65,2.19-1.58,4.4-3.38,6.44-5.21-1.09-1.83-2.93-4.35-4.26-5.76-1.39-1.47-4-2.98-6.8-3.98-1.24.85-2.46,1.61-3.63,2.3"/><path class="cls-4" d="M95.82,52.95c-1.08,1.02-2.19,1.96-3.31,2.83,2.46.78,5.4,2.44,6.94,4.07,1.2,1.27,2.79,3.55,3.92,5.24.86-.85,1.66-1.7,2.37-2.51.98-1.1,1.91-2.25,2.77-3.44-5.37-4.71-9.11-5.91-12.41-6.47-.09.09-.18.18-.27.28"/><path class="cls-4" d="M89.28,30.67s-.03-.08-.04-.12v.02s.46,10.81.46,10.81l-.02.14c4.31-3.46,8.03-3.2,9.92-1.2,1.61,1.71,1.59,5.45-.99,9.36,4.86.69,9.73,5.53,11.38,7.3,2.26-3.62,3.8-7.61,3.92-12,.2-6.79-4.31-12.45-8.51-14.27-3.98-1.73-10.66-2.38-16.12-.05"/><path class="cls-4" d="M24.7,41.8c-6.08,14.06-1.68,25.33,2.88,31.68,3.94,5.49,13.85,13.02,42.4-7.24,28.55-20.26,31.1-32.98,23.81-39.08-7.28-6.1-23.4-10.23-35.83-7.5-12.43,2.73-27.19,8.07-33.26,22.14"/><path class="cls-5" d="M70.77,34.54c-4.56-6.77-13.75-8.56-20.52-4s-8.56,13.75-4,20.52c4.56,6.77,13.75,8.56,20.52,4s8.56-13.75,4-20.52"/><path class="cls-5" d="M42.06,51.76c-2.39-3.55-7.2-4.49-10.75-2.1s-4.49,7.2-2.1,10.75,7.2,4.49,10.75,2.1,4.49-7.2,2.1-10.75"/><path class="cls-1" d="M65.99,35.62c-1.11-1.64-3.34-2.08-4.98-.97s-2.08,3.34-.97,4.98,3.34,2.08,4.98.97,2.08-3.34.97-4.98"/><path class="cls-1" d="M40.55,53.3c-.79-1.17-2.37-1.48-3.54-.69s-1.48,2.37-.69,3.54,2.37,1.48,3.54.69,1.48-2.37.69-3.54"/><path class="cls-4" d="M16.87,70.88c.69-.6,1.44-1.12,2.21-1.61.78-.48,1.59-.91,2.42-1.3.83-.39,1.64-.85,2.53-1.06.45-.11.89-.21,1.35-.26.46-.06.92-.09,1.4-.05l.03.11c-.79.53-1.61.9-2.43,1.26-.82.36-1.7.54-2.55.83-.84.3-1.67.62-2.5.98-.82.35-1.62.76-2.41,1.21l-.07-.09Z"/><path class="cls-4" d="M17.55,75.09c.65-.81,1.39-1.55,2.16-2.26.78-.69,1.6-1.35,2.44-1.96.85-.61,1.67-1.28,2.61-1.72.47-.22.95-.43,1.45-.6.49-.17,1-.32,1.54-.4l.05.1c-.79.72-1.64,1.3-2.49,1.87-.85.57-1.79.98-2.67,1.5-.88.52-1.74,1.07-2.58,1.65-.84.58-1.64,1.22-2.42,1.9l-.08-.08Z"/><path class="cls-4" d="M20.99,76.81c.51-.91,1.11-1.76,1.75-2.59.65-.81,1.35-1.59,2.08-2.34.73-.74,1.43-1.54,2.29-2.13.43-.3.87-.59,1.33-.84.46-.25.94-.48,1.45-.65l.06.09c-.66.84-1.4,1.56-2.14,2.26-.74.71-1.6,1.26-2.38,1.92-.78.66-1.54,1.35-2.27,2.06-.73.71-1.42,1.48-2.07,2.28l-.09-.06Z"/><path class="cls-4" d="M93.1,16.99c-.71.56-1.39,1.14-2.03,1.77-.64.63-1.25,1.28-1.84,1.95-.59.67-1.09,1.43-1.73,2.05-.64.63-1.3,1.24-2.08,1.78l-.09-.07c.14-.46.35-.88.57-1.28.22-.41.48-.78.75-1.16.54-.75,1.26-1.33,1.94-1.94.68-.62,1.38-1.2,2.12-1.75.75-.53,1.51-1.03,2.33-1.45l.06.09Z"/><path class="cls-4" d="M96.72,19.21c-.92.46-1.81.97-2.67,1.53-.85.57-1.69,1.16-2.5,1.77-.81.62-1.54,1.35-2.39,1.91-.85.58-1.7,1.14-2.67,1.6l-.08-.08c.27-.47.6-.88.95-1.28.35-.4.72-.76,1.1-1.12.77-.71,1.69-1.22,2.58-1.77.89-.55,1.8-1.06,2.73-1.53.95-.44,1.91-.85,2.9-1.15l.04.1Z"/><path class="cls-4" d="M97,23.04c-.99.3-1.95.65-2.89,1.06-.94.41-1.86.86-2.76,1.33-.9.48-1.74,1.07-2.68,1.49-.93.43-1.87.84-2.9,1.13l-.06-.09c.35-.41.74-.77,1.15-1.1.41-.33.84-.63,1.28-.92.88-.57,1.87-.92,2.84-1.32.97-.4,1.95-.75,2.95-1.05,1.01-.28,2.02-.52,3.05-.65l.02.11Z"/><path class="cls-4" d="M23.2,54.33c-3.2-2.82-10.16-13.47-12.12-17.6-1.47-3.1,1.61-3.27,3.76-3.01,2.15.26,12.44,1.37,15.17,2.8,2.73,1.43-6.81,17.81-6.81,17.81"/><polygon class="cls-5" points="30.44 38.27 13.42 36.18 23.1 50.04 24.14 44.36 27.22 46.11 28.62 43.88 25.51 41.99 30.44 38.27"/><path class="cls-4" d="M48.09,23.8c-1.43-7.08-2.05-16.61-1.97-18.71.08-2.1.56-2.76,1.66-3.3,1.89-.93,6.11,2.7,8.82,4.69,2.71,1.99,12.34,9.56,15.83,12.69,3.48,3.13-15.58,6.5-15.58,6.5l-8.33-.32-.43-1.55Z"/><polygon class="cls-5" points="65.54 16.69 49.36 5.04 50.78 24.7 55.43 19.33 57.23 22.65 59.9 21.21 58.18 17.77 65.54 16.69"/></g></g></g><circle class="cls-3" cx="128" cy="128" r="106.66"/><path class="cls-5" d="M81.72,91.23v72.33h-18.14v-47.4c-2.93,2.46-5.77,4.45-8.52,5.97-2.74,1.52-6.18,2.98-10.32,4.37v-16.2c6.1-2.17,10.84-4.77,14.22-7.81,3.37-3.04,6.02-6.79,7.92-11.26h14.83Z"/><path class="cls-5" d="M112,125.33c-2.82-1.65-4.87-3.49-6.16-5.53-1.76-2.78-2.64-5.98-2.64-9.6,0-5.95,2.54-10.82,7.62-14.6,3.96-2.91,9.2-4.37,15.71-4.37,8.63,0,15,1.81,19.13,5.43,4.12,3.62,6.18,8.18,6.18,13.68,0,3.2-.82,6.19-2.46,8.97-1.23,2.07-3.17,4.08-5.81,6.02,3.49,1.84,6.1,4.29,7.81,7.33,1.72,3.04,2.58,6.4,2.58,10.09s-.74,6.88-2.22,9.97c-1.48,3.09-3.3,5.47-5.46,7.16-2.16,1.68-4.84,2.92-8.06,3.71s-6.64,1.19-10.28,1.19c-6.84,0-12.06-.89-15.67-2.67-3.61-1.78-6.35-4.4-8.23-7.86-1.88-3.46-2.82-7.33-2.82-11.6s.88-7.7,2.64-10.6,4.47-5.13,8.14-6.72ZM119.09,141.97c0,3.14.87,5.7,2.6,7.69,1.73,1.99,3.71,2.98,5.94,2.98s4.06-1.01,5.77-3.03c1.7-2.02,2.55-4.58,2.55-7.69s-.86-5.71-2.58-7.71c-1.72-2-3.71-3.01-5.96-3.01s-4.18.97-5.83,2.91c-1.66,1.94-2.49,4.56-2.49,7.86ZM120.05,111.36c0,2.46.7,4.44,2.09,5.94,1.39,1.5,3.25,2.26,5.57,2.26,2.05,0,3.74-.74,5.06-2.23,1.32-1.49,1.98-3.41,1.98-5.77s-.69-4.46-2.07-5.99c-1.38-1.53-3.14-2.3-5.28-2.3s-3.94.75-5.3,2.26c-1.36,1.5-2.05,3.45-2.05,5.85Z"/><path class="cls-5" d="M163.24,120.24h16.86v-18.68h14.22v18.68h16.95v15.67h-16.95v18.58h-14.22v-18.58h-16.86v-15.67Z"/></svg>